<svg width="455" height="458" viewBox="0 0 455 458" fill="none" xmlns="http://www.w3.org/2000/svg">
<g clip-path="url(#clip0_14_5)">
<circle cx="227.5" cy="230.5" r="227.5" fill="#FF4D4D"/>
<path d="M270.059 143.323C266.954 137.676 267.091 129.17 267.388 122.765C268.415 101.108 264.1 79.9637 252.455 62.095C236.952 38.2619 212.817 18.9999 185.327 6.65553C181.422 4.89555 176.787 3.40446 172.335 3.35557C172.244 3.33112 172.129 3.28224 172.015 3.25779C170.565 2.93184 169.07 2.91482 167.614 3.20769C166.158 3.50057 164.77 4.0976 163.53 4.96471C162.29 5.83181 161.221 6.95199 160.385 8.26129C159.549 9.57059 158.962 11.0434 158.658 12.5955L121.418 202.698C111.6 192.627 98.6764 186.369 84.7484 183.754C60.6598 179.256 33.8085 185.391 15.7706 200.18C9.71991 205.142 3.5094 211.84 -0.417835 218.929C-4.45923 226.238 -8.08964 237.091 -7.99831 245.695C-7.79282 263.637 -0.531999 281.164 12.5055 292.579C16.0903 295.733 20.1317 298.739 24.2644 300.988C46.9602 313.455 75.3641 307.93 96.8269 295.121C113.107 285.393 130.574 267.328 135.391 247.211C135.78 246.38 136.054 245.5 136.259 244.522L165.462 95.5591C167.334 95.9257 169.093 96.2191 170.417 96.5368C178.089 98.2724 185.578 100.766 192.747 104.09C206.059 110.299 218.914 119.514 226.723 132.91C234.508 146.33 241.495 159.358 255.88 165.787C261.862 168.476 273.096 168.989 278.233 164.101C286.704 156.058 273.324 149.239 270.059 143.323Z" fill="white"/>
<path d="M172.36 308L158.44 281.76L173.48 272.96L193.64 308H172.36ZM137.48 308V252H156.36V308H137.48ZM150.92 287.76V272.88H172.12V287.76H150.92ZM175.32 282L157.96 280.24L174.04 252H193.72L175.32 282ZM236.012 300V266.64H223.132L222.972 270.64C222.865 273.573 222.679 276.32 222.412 278.88C222.145 281.44 221.772 283.787 221.292 285.92C220.865 288.053 220.305 289.947 219.612 291.6C218.919 293.2 218.065 294.533 217.052 295.6L197.132 293.36C198.892 293.36 200.332 292.773 201.452 291.6C202.625 290.373 203.559 288.693 204.252 286.56C204.945 284.373 205.452 281.813 205.772 278.88C206.145 275.893 206.412 272.613 206.572 269.04L207.212 252H254.572V300H236.012ZM195.532 318.96V293.36H261.932V318.96H244.652V308H212.812V318.96H195.532ZM268.273 308V252H283.793L306.193 288.56H298.033L319.793 252H335.313L335.473 308H318.273L318.113 277.92H320.833L305.953 302.96H297.633L282.113 277.92H285.473V308H268.273ZM379.224 293.36L375.144 297.44V252H393.704V297.44L389.544 293.36H409.064L404.904 297.44V252H423.464V308H345.304V252H363.864V297.44L359.784 293.36H379.224Z" fill="white"/>
<path d="M231.36 412V394.6L261.72 366.52C263.64 364.68 265.04 363.08 265.92 361.72C266.88 360.36 267.52 359.16 267.84 358.12C268.16 357 268.32 355.96 268.32 355C268.32 352.92 267.64 351.32 266.28 350.2C264.92 349 262.88 348.4 260.16 348.4C257.68 348.4 255.32 349.08 253.08 350.44C250.84 351.72 249.08 353.64 247.8 356.2L226.44 345.52C229.48 339.76 234.04 335.08 240.12 331.48C246.2 327.88 253.76 326.08 262.8 326.08C269.44 326.08 275.32 327.16 280.44 329.32C285.56 331.48 289.56 334.52 292.44 338.44C295.32 342.36 296.76 347 296.76 352.36C296.76 355.08 296.4 357.8 295.68 360.52C295.04 363.24 293.68 366.12 291.6 369.16C289.52 372.12 286.44 375.44 282.36 379.12L259.56 399.88L255.12 390.04H298.68V412H231.36ZM304.368 412V394.6L334.728 366.52C336.648 364.68 338.048 363.08 338.928 361.72C339.888 360.36 340.528 359.16 340.848 358.12C341.168 357 341.328 355.96 341.328 355C341.328 352.92 340.648 351.32 339.288 350.2C337.928 349 335.888 348.4 333.168 348.4C330.688 348.4 328.328 349.08 326.088 350.44C323.848 351.72 322.088 353.64 320.808 356.2L299.448 345.52C302.488 339.76 307.048 335.08 313.128 331.48C319.208 327.88 326.768 326.08 335.808 326.08C342.448 326.08 348.328 327.16 353.448 329.32C358.568 331.48 362.568 334.52 365.448 338.44C368.328 342.36 369.768 347 369.768 352.36C369.768 355.08 369.408 357.8 368.688 360.52C368.048 363.24 366.688 366.12 364.608 369.16C362.528 372.12 359.448 375.44 355.368 379.12L332.568 399.88L328.128 390.04H371.688V412H304.368Z" fill="white"/>
</g>
<defs>
<clipPath id="clip0_14_5">
<rect width="455" height="458" fill="white"/>
</clipPath>
</defs>
</svg>
