<svg width="455" height="458" viewBox="0 0 455 458" fill="none" xmlns="http://www.w3.org/2000/svg">
<g clip-path="url(#clip0_17_12)">
<circle cx="227.5" cy="230.5" r="227.5" fill="#FF4D4D"/>
<g clip-path="url(#clip1_17_12)">
<path d="M404.164 91.6843L269.36 6.20483C267.347 4.92819 265.067 4.19636 262.7 4.06776C260.334 3.93916 257.947 4.41734 255.731 5.46414C253.514 6.51094 251.529 8.09736 249.934 10.0968C248.338 12.0962 247.177 14.4532 246.543 16.9797L191.551 236.323C180.219 217.701 163.181 204.183 143.284 198.026C123.387 191.87 101.837 193.449 82.235 202.498C62.6331 211.548 46.1671 227.521 35.5891 247.747C25.011 267.974 20.9618 291.228 24.1182 313.624C27.2746 336.019 37.4454 356.2 52.9306 370.792C68.4159 385.384 88.2774 393.504 109.196 393.794C130.114 394.085 150.822 386.529 167.858 372.388C184.895 358.248 197.228 338.38 202.795 316.106L246.099 143.382L363.547 217.856C365.56 219.133 367.84 219.865 370.207 219.994C372.573 220.122 374.96 219.644 377.177 218.597C379.394 217.55 381.379 215.964 382.974 213.965C384.569 211.965 385.73 209.608 386.364 207.082L410.746 109.83C411.619 106.345 411.45 102.698 410.264 99.4295C409.079 96.161 406.94 93.445 404.164 91.6843Z" fill="white"/>
</g>
</g>
<defs>
<clipPath id="clip0_17_12">
<rect width="455" height="458" fill="white"/>
</clipPath>
<clipPath id="clip1_17_12">
<rect width="484" height="433" fill="white" transform="translate(-11 3)"/>
</clipPath>
</defs>
</svg>
